<mxfile host="app.diagrams.net" agent="Mozilla/5.0 (Macintosh; Intel Mac OS X 10_15_7) AppleWebKit/537.36 (KHTML, like Gecko) Chrome/137.0.0.0 Safari/537.36 Edg/137.0.0.0" version="27.1.6">
  <diagram name="第 1 页" id="IGoUaHE3HpbbfrSOBgP-">
    <mxGraphModel dx="994" dy="561" grid="1" gridSize="10" guides="1" tooltips="1" connect="1" arrows="1" fold="1" page="1" pageScale="1" pageWidth="1169" pageHeight="827" math="0" shadow="0">
      <root>
        <mxCell id="0" />
        <mxCell id="1" parent="0" />
        <mxCell id="e7JJbm4f1ThYcLce3TLM-43" style="edgeStyle=orthogonalEdgeStyle;rounded=0;orthogonalLoop=1;jettySize=auto;html=1;exitX=0.5;exitY=1;exitDx=0;exitDy=0;" edge="1" parent="1" source="e7JJbm4f1ThYcLce3TLM-3" target="e7JJbm4f1ThYcLce3TLM-8">
          <mxGeometry relative="1" as="geometry" />
        </mxCell>
        <mxCell id="e7JJbm4f1ThYcLce3TLM-3" value="&lt;span style=&quot;background-color: transparent; color: light-dark(rgb(0, 0, 0), rgb(255, 255, 255));&quot;&gt;controller-a&lt;/span&gt;" style="rounded=1;whiteSpace=wrap;html=1;" vertex="1" parent="1">
          <mxGeometry x="210" y="110" width="120" height="60" as="geometry" />
        </mxCell>
        <mxCell id="e7JJbm4f1ThYcLce3TLM-45" value="实现方式一" style="edgeStyle=orthogonalEdgeStyle;rounded=0;orthogonalLoop=1;jettySize=auto;html=1;exitX=0.5;exitY=1;exitDx=0;exitDy=0;entryX=0.5;entryY=0;entryDx=0;entryDy=0;" edge="1" parent="1" source="e7JJbm4f1ThYcLce3TLM-8" target="e7JJbm4f1ThYcLce3TLM-11">
          <mxGeometry relative="1" as="geometry" />
        </mxCell>
        <mxCell id="e7JJbm4f1ThYcLce3TLM-46" value="实现方式二" style="edgeStyle=orthogonalEdgeStyle;rounded=0;orthogonalLoop=1;jettySize=auto;html=1;exitX=1;exitY=0.5;exitDx=0;exitDy=0;entryX=0;entryY=0.5;entryDx=0;entryDy=0;" edge="1" parent="1" source="e7JJbm4f1ThYcLce3TLM-8" target="e7JJbm4f1ThYcLce3TLM-17">
          <mxGeometry relative="1" as="geometry" />
        </mxCell>
        <mxCell id="e7JJbm4f1ThYcLce3TLM-8" value="&lt;span style=&quot;background-color: transparent; color: light-dark(rgb(0, 0, 0), rgb(255, 255, 255));&quot;&gt;service-&lt;/span&gt;&lt;span style=&quot;background-color: transparent; color: light-dark(rgb(0, 0, 0), rgb(255, 255, 255));&quot;&gt;interface-a&lt;/span&gt;" style="rounded=1;whiteSpace=wrap;html=1;" vertex="1" parent="1">
          <mxGeometry x="210" y="230" width="120" height="60" as="geometry" />
        </mxCell>
        <mxCell id="e7JJbm4f1ThYcLce3TLM-44" style="edgeStyle=orthogonalEdgeStyle;rounded=0;orthogonalLoop=1;jettySize=auto;html=1;exitX=0.5;exitY=1;exitDx=0;exitDy=0;entryX=0.5;entryY=0;entryDx=0;entryDy=0;" edge="1" parent="1" source="e7JJbm4f1ThYcLce3TLM-11" target="e7JJbm4f1ThYcLce3TLM-18">
          <mxGeometry relative="1" as="geometry" />
        </mxCell>
        <mxCell id="e7JJbm4f1ThYcLce3TLM-11" value="&lt;span style=&quot;background-color: transparent; color: light-dark(rgb(0, 0, 0), rgb(255, 255, 255));&quot;&gt;service-impl-a&lt;/span&gt;" style="rounded=1;whiteSpace=wrap;html=1;" vertex="1" parent="1">
          <mxGeometry x="210" y="340" width="120" height="60" as="geometry" />
        </mxCell>
        <mxCell id="e7JJbm4f1ThYcLce3TLM-12" style="edgeStyle=orthogonalEdgeStyle;rounded=0;orthogonalLoop=1;jettySize=auto;html=1;exitX=0;exitY=0.5;exitDx=0;exitDy=0;" edge="1" parent="1" source="e7JJbm4f1ThYcLce3TLM-14" target="e7JJbm4f1ThYcLce3TLM-3">
          <mxGeometry relative="1" as="geometry" />
        </mxCell>
        <mxCell id="e7JJbm4f1ThYcLce3TLM-13" value="feign调用" style="edgeLabel;html=1;align=center;verticalAlign=middle;resizable=0;points=[];" vertex="1" connectable="0" parent="e7JJbm4f1ThYcLce3TLM-12">
          <mxGeometry x="-0.0444" y="-1" relative="1" as="geometry">
            <mxPoint as="offset" />
          </mxGeometry>
        </mxCell>
        <mxCell id="e7JJbm4f1ThYcLce3TLM-14" value="&lt;span style=&quot;background-color: transparent; color: light-dark(rgb(0, 0, 0), rgb(255, 255, 255));&quot;&gt;feign-a&lt;/span&gt;" style="rounded=1;whiteSpace=wrap;html=1;" vertex="1" parent="1">
          <mxGeometry x="420" y="110" width="120" height="60" as="geometry" />
        </mxCell>
        <mxCell id="e7JJbm4f1ThYcLce3TLM-15" style="edgeStyle=orthogonalEdgeStyle;rounded=0;orthogonalLoop=1;jettySize=auto;html=1;exitX=0.5;exitY=0;exitDx=0;exitDy=0;entryX=0.5;entryY=1;entryDx=0;entryDy=0;" edge="1" parent="1" source="e7JJbm4f1ThYcLce3TLM-17" target="e7JJbm4f1ThYcLce3TLM-14">
          <mxGeometry relative="1" as="geometry" />
        </mxCell>
        <mxCell id="e7JJbm4f1ThYcLce3TLM-16" value="调用" style="edgeLabel;html=1;align=center;verticalAlign=middle;resizable=0;points=[];" vertex="1" connectable="0" parent="e7JJbm4f1ThYcLce3TLM-15">
          <mxGeometry x="0.02" y="-1" relative="1" as="geometry">
            <mxPoint as="offset" />
          </mxGeometry>
        </mxCell>
        <mxCell id="e7JJbm4f1ThYcLce3TLM-17" value="&lt;span style=&quot;background-color: transparent; color: light-dark(rgb(0, 0, 0), rgb(255, 255, 255));&quot;&gt;service-impl-a&lt;/span&gt;" style="rounded=1;whiteSpace=wrap;html=1;" vertex="1" parent="1">
          <mxGeometry x="420" y="340" width="120" height="60" as="geometry" />
        </mxCell>
        <mxCell id="e7JJbm4f1ThYcLce3TLM-18" value="&lt;span style=&quot;background-color: transparent; color: light-dark(rgb(0, 0, 0), rgb(255, 255, 255));&quot;&gt;dao-a&lt;/span&gt;" style="rounded=1;whiteSpace=wrap;html=1;" vertex="1" parent="1">
          <mxGeometry x="210" y="450" width="120" height="60" as="geometry" />
        </mxCell>
        <mxCell id="e7JJbm4f1ThYcLce3TLM-37" style="edgeStyle=orthogonalEdgeStyle;rounded=0;orthogonalLoop=1;jettySize=auto;html=1;exitX=0.5;exitY=1;exitDx=0;exitDy=0;entryX=0.5;entryY=0;entryDx=0;entryDy=0;" edge="1" parent="1" source="e7JJbm4f1ThYcLce3TLM-21" target="e7JJbm4f1ThYcLce3TLM-26">
          <mxGeometry relative="1" as="geometry" />
        </mxCell>
        <mxCell id="e7JJbm4f1ThYcLce3TLM-21" value="&lt;span style=&quot;background-color: transparent; color: light-dark(rgb(0, 0, 0), rgb(255, 255, 255));&quot;&gt;controller-b&lt;/span&gt;" style="rounded=1;whiteSpace=wrap;html=1;" vertex="1" parent="1">
          <mxGeometry x="630" y="110" width="120" height="60" as="geometry" />
        </mxCell>
        <mxCell id="e7JJbm4f1ThYcLce3TLM-38" style="edgeStyle=orthogonalEdgeStyle;rounded=0;orthogonalLoop=1;jettySize=auto;html=1;exitX=0.5;exitY=1;exitDx=0;exitDy=0;" edge="1" parent="1" source="e7JJbm4f1ThYcLce3TLM-26" target="e7JJbm4f1ThYcLce3TLM-29">
          <mxGeometry relative="1" as="geometry" />
        </mxCell>
        <mxCell id="e7JJbm4f1ThYcLce3TLM-26" value="&lt;span style=&quot;background-color: transparent; color: light-dark(rgb(0, 0, 0), rgb(255, 255, 255));&quot;&gt;service-&lt;/span&gt;&lt;span style=&quot;background-color: transparent; color: light-dark(rgb(0, 0, 0), rgb(255, 255, 255));&quot;&gt;interface-b&lt;/span&gt;" style="rounded=1;whiteSpace=wrap;html=1;" vertex="1" parent="1">
          <mxGeometry x="630" y="230" width="120" height="60" as="geometry" />
        </mxCell>
        <mxCell id="e7JJbm4f1ThYcLce3TLM-39" style="edgeStyle=orthogonalEdgeStyle;rounded=0;orthogonalLoop=1;jettySize=auto;html=1;exitX=0.5;exitY=1;exitDx=0;exitDy=0;entryX=0.5;entryY=0;entryDx=0;entryDy=0;" edge="1" parent="1" source="e7JJbm4f1ThYcLce3TLM-29" target="e7JJbm4f1ThYcLce3TLM-36">
          <mxGeometry relative="1" as="geometry" />
        </mxCell>
        <mxCell id="e7JJbm4f1ThYcLce3TLM-47" style="edgeStyle=orthogonalEdgeStyle;rounded=0;orthogonalLoop=1;jettySize=auto;html=1;exitX=0;exitY=0.5;exitDx=0;exitDy=0;entryX=1;entryY=0.5;entryDx=0;entryDy=0;" edge="1" parent="1" source="e7JJbm4f1ThYcLce3TLM-29" target="e7JJbm4f1ThYcLce3TLM-18">
          <mxGeometry relative="1" as="geometry">
            <Array as="points">
              <mxPoint x="570" y="370" />
              <mxPoint x="570" y="480" />
            </Array>
          </mxGeometry>
        </mxCell>
        <mxCell id="e7JJbm4f1ThYcLce3TLM-29" value="&lt;span style=&quot;background-color: transparent; color: light-dark(rgb(0, 0, 0), rgb(255, 255, 255));&quot;&gt;service-impl-b&lt;/span&gt;" style="rounded=1;whiteSpace=wrap;html=1;" vertex="1" parent="1">
          <mxGeometry x="630" y="340" width="120" height="60" as="geometry" />
        </mxCell>
        <mxCell id="e7JJbm4f1ThYcLce3TLM-36" value="&lt;span style=&quot;background-color: transparent; color: light-dark(rgb(0, 0, 0), rgb(255, 255, 255));&quot;&gt;dao-b&lt;/span&gt;" style="rounded=1;whiteSpace=wrap;html=1;" vertex="1" parent="1">
          <mxGeometry x="630" y="450" width="120" height="60" as="geometry" />
        </mxCell>
        <mxCell id="e7JJbm4f1ThYcLce3TLM-48" style="edgeStyle=orthogonalEdgeStyle;rounded=0;orthogonalLoop=1;jettySize=auto;html=1;exitX=0.5;exitY=1;exitDx=0;exitDy=0;entryX=0.5;entryY=0;entryDx=0;entryDy=0;" edge="1" parent="1" source="e7JJbm4f1ThYcLce3TLM-49" target="e7JJbm4f1ThYcLce3TLM-51">
          <mxGeometry relative="1" as="geometry" />
        </mxCell>
        <mxCell id="e7JJbm4f1ThYcLce3TLM-49" value="&lt;span style=&quot;background-color: transparent; color: light-dark(rgb(0, 0, 0), rgb(255, 255, 255));&quot;&gt;controller-c&lt;/span&gt;" style="rounded=1;whiteSpace=wrap;html=1;" vertex="1" parent="1">
          <mxGeometry x="830" y="110" width="120" height="60" as="geometry" />
        </mxCell>
        <mxCell id="e7JJbm4f1ThYcLce3TLM-50" style="edgeStyle=orthogonalEdgeStyle;rounded=0;orthogonalLoop=1;jettySize=auto;html=1;exitX=0.5;exitY=1;exitDx=0;exitDy=0;" edge="1" parent="1" source="e7JJbm4f1ThYcLce3TLM-51" target="e7JJbm4f1ThYcLce3TLM-53">
          <mxGeometry relative="1" as="geometry" />
        </mxCell>
        <mxCell id="e7JJbm4f1ThYcLce3TLM-51" value="&lt;span style=&quot;background-color: transparent; color: light-dark(rgb(0, 0, 0), rgb(255, 255, 255));&quot;&gt;service-&lt;/span&gt;&lt;span style=&quot;background-color: transparent; color: light-dark(rgb(0, 0, 0), rgb(255, 255, 255));&quot;&gt;interface-c&lt;/span&gt;" style="rounded=1;whiteSpace=wrap;html=1;" vertex="1" parent="1">
          <mxGeometry x="830" y="230" width="120" height="60" as="geometry" />
        </mxCell>
        <mxCell id="e7JJbm4f1ThYcLce3TLM-52" style="edgeStyle=orthogonalEdgeStyle;rounded=0;orthogonalLoop=1;jettySize=auto;html=1;exitX=0.5;exitY=1;exitDx=0;exitDy=0;entryX=0.5;entryY=0;entryDx=0;entryDy=0;" edge="1" parent="1" source="e7JJbm4f1ThYcLce3TLM-53" target="e7JJbm4f1ThYcLce3TLM-54">
          <mxGeometry relative="1" as="geometry" />
        </mxCell>
        <mxCell id="e7JJbm4f1ThYcLce3TLM-57" style="edgeStyle=orthogonalEdgeStyle;rounded=0;orthogonalLoop=1;jettySize=auto;html=1;exitX=0;exitY=0.5;exitDx=0;exitDy=0;entryX=0;entryY=0.5;entryDx=0;entryDy=0;" edge="1" parent="1" source="e7JJbm4f1ThYcLce3TLM-53" target="e7JJbm4f1ThYcLce3TLM-8">
          <mxGeometry relative="1" as="geometry">
            <Array as="points">
              <mxPoint x="800" y="370" />
              <mxPoint x="800" y="560" />
              <mxPoint x="170" y="560" />
              <mxPoint x="170" y="260" />
            </Array>
          </mxGeometry>
        </mxCell>
        <mxCell id="e7JJbm4f1ThYcLce3TLM-53" value="&lt;span style=&quot;background-color: transparent; color: light-dark(rgb(0, 0, 0), rgb(255, 255, 255));&quot;&gt;service-impl-c&lt;/span&gt;" style="rounded=1;whiteSpace=wrap;html=1;" vertex="1" parent="1">
          <mxGeometry x="830" y="340" width="120" height="60" as="geometry" />
        </mxCell>
        <mxCell id="e7JJbm4f1ThYcLce3TLM-54" value="&lt;span style=&quot;background-color: transparent; color: light-dark(rgb(0, 0, 0), rgb(255, 255, 255));&quot;&gt;dao-c&lt;/span&gt;" style="rounded=1;whiteSpace=wrap;html=1;" vertex="1" parent="1">
          <mxGeometry x="830" y="450" width="120" height="60" as="geometry" />
        </mxCell>
      </root>
    </mxGraphModel>
  </diagram>
</mxfile>
